<svg xmlns="http://www.w3.org/2000/svg" viewBox="0 0 39.74 54"><path d="M21.31,4.86a6.78,6.78,0,0,1,.51,6.93c-.33.59-1,2.52.1,3.64.75.79,3.79.42,1.94-2.7-.91-1.53,2.42-3.68-.74-7.19,4.44,1.67,2.42,5.8,3.72,7.32s1.19,3.95.66,5.46a7.31,7.31,0,0,1-1.88,2.95,7.39,7.39,0,0,1-3,1.74,10.89,10.89,0,0,1-4.75.18c-2.94-.54-5.42-2.6-5.89-7.17-.4-2.58,1.36-3.9,1.28-5.36C13.13,8,16.83,5.78,16.83,5.78c-2.88,3.43-.57,5-.74,6.57-.1,1.07-1.34,2.73.61,3.19,1.5.36,2.7-2,1.36-3.56-1.11-1.32-.31-3.13.77-4.79,1.85-2.82-2.34-5.1,2.74-7.19C21.57,0,19,1.35,21.31,4.86Z"/><path d="M35.9,18.48a.45.45,0,0,0-.28,0,.43.43,0,0,0-.24.15.41.41,0,0,0-.09.28.42.42,0,0,0,.1.26,2.84,2.84,0,0,1,.84,1.9c0,3.31-7.33,6-16.36,6S3.51,24.35,3.51,21a2.88,2.88,0,0,1,.83-1.9.38.38,0,0,0,.11-.26.42.42,0,0,0-.33-.43.48.48,0,0,0-.29,0C1.43,19.73,0,21.26,0,22.92c0,3.6,6.72,7.51,15.67,8.47a2.21,2.21,0,0,1,1.4.71,2.24,2.24,0,0,1,.57,1.46V53.94c.73,0,1.47.06,2.23.06s1.5,0,2.23-.06V33.56a2.18,2.18,0,0,1,.56-1.46,2.23,2.23,0,0,1,1.4-.71c9-1,15.68-4.87,15.68-8.47C39.73,21.26,38.31,19.73,35.9,18.48Z"/><path d="M39.73,32.69c0-1.38-1-2.68-2.72-3.79a.74.74,0,0,0-.44-.11.64.64,0,0,0-.41.18.7.7,0,0,0-.16.83,2.41,2.41,0,0,1,.23,1c0,2.49-4.14,4.62-10,5.53a2.18,2.18,0,0,0-1.86,2.16v2.63a37.64,37.64,0,0,0,4.47-.78V52.91a31.41,31.41,0,0,0,3-.93,2.21,2.21,0,0,0,1-.8,2.15,2.15,0,0,0,.39-1.25v-11C37.24,37.2,39.73,34.89,39.73,32.69Z"/><path d="M15.4,38.51a2.16,2.16,0,0,0-.54-1.43,2.21,2.21,0,0,0-1.33-.73c-5.89-.91-10-3-10-5.53a2.41,2.41,0,0,1,.23-1,.67.67,0,0,0,.06-.44A.73.73,0,0,0,3.58,29a.67.67,0,0,0-.42-.18.73.73,0,0,0-.43.11C1,30,0,31.31,0,32.69c0,2.2,2.49,4.5,6.46,6.19v11a2.15,2.15,0,0,0,.39,1.25,2.21,2.21,0,0,0,1,.8c1,.36,2,.67,3,.93V40.36a37.67,37.67,0,0,0,4.47.79Z"/></svg>