<svg xmlns="http://www.w3.org/2000/svg" viewBox="0 0 137.21 35"><path d="M0,24.42H3.44V34.73H6.56V24.42H10V21.61H0Z"/><path d="M20.09,21.61l-2.89,5-2.89-5H10.64l5,7.81v5.31h3.13V29.42l5-7.81Z"/><path d="M25.68,30.15a1.81,1.81,0,0,1-.67,1.7,3.3,3.3,0,0,1-1.83.23V34.9A6.85,6.85,0,0,0,26,34.78c2.4-.66,2.77-2.59,2.77-5.35v-5h3.75v10.3h3.13V21.6h-10Z"/><path d="M50.29,31.92H47.17V21.61H44V31.92H40.91V21.61H37.79V34.73H53.41V21.61H50.29Z"/><path d="M74,21.61H70.42l-2.79,4.14-2.79-4.14H61.22l4.38,6.25-4.69,6.87h3.75l3-4.51,3,4.51h3.75l-4.69-6.87Z"/><path d="M88.12,21.61H84.51l-2.79,4.14-2.79-4.14H75.31l4.38,6.25L75,34.73h3.75l3-4.51,3,4.51h3.76l-4.69-6.87Z"/><path d="M100.45,21.61H96.7l-4.06,5v-5H89.51V34.73h3.13V29.11L97,34.73h3.75l-5.31-6.87Z"/><path d="M3.44,17.18H6.56V6.87H10V4.06H0V6.87H3.44Z"/><path d="M12.19,17.18,13,15h5.23l.82,2.18H22.5L17.07,4.06H14.18L8.75,17.18Zm3.43-9.06,1.55,4.06H14.08Z"/><path d="M34.06,13.24a2.94,2.94,0,0,0-2.21-2.94,3.23,3.23,0,0,0,1.58-2.8c0-2.45-2-3.43-5-3.43h-5V17.19h6.13C32.38,17.18,34.06,15.51,34.06,13.24Zm-7.5-6.37h1.88c1.19,0,1.87.28,1.87,1.08s-.68,1.11-1.87,1.11H26.56Zm0,7.5v-2.5h2.19c1.33,0,2.19.37,2.19,1.23s-.86,1.27-2.19,1.27Z"/><path d="M43.58,15l.82,2.18h3.44L42.41,4.06H39.52L34.09,17.18h3.44L38.35,15ZM41,8.13l1.54,4.06H39.42Z"/><path d="M56.9,9.22h-5V4.06H48.78V17.18H51.9V12h5v5.15H60V4.06H56.9Z"/><path d="M64.68,17.18H67.8V6.87h3.44V4.06h-10V6.87h3.44Z"/><path d="M78.65,17.5a7,7,0,0,0,7-6.87,7,7,0,0,0-14.06,0A7,7,0,0,0,78.65,17.5Zm0-10.94a4,4,0,0,1,3.9,4.06,3.91,3.91,0,1,1-7.81,0,4,4,0,0,1,3.91-4.06Z"/><path d="M91.79,11.87v-5h3.74V17.18h3.13V4.06h-10V12.6A1.77,1.77,0,0,1,88,14.29a3.33,3.33,0,0,1-1.84.25v2.81A6.85,6.85,0,0,0,89,17.23C91.42,16.56,91.79,14.63,91.79,11.87Z"/><path d="M100.78,17.18h3.12V6.87h5.31V4.06h-8.43Z"/><path d="M116.62,3.75a7,7,0,0,0-7,6.86,7,7,0,0,0,14.06,0A7,7,0,0,0,116.62,3.75Zm0,10.93a4,4,0,0,1-3.9-4.06,3.91,3.91,0,1,1,7.81,0,4,4,0,0,1-3.91,4.06Z"/><path d="M131.12,2.81a2.85,2.85,0,0,0,1.08-.21,2.8,2.8,0,0,0,.91-.61,2.8,2.8,0,0,0,.61-.91A2.85,2.85,0,0,0,133.93,0h-1.56a1.15,1.15,0,0,1-.1.48,1.09,1.09,0,0,1-.27.4,1.09,1.09,0,0,1-.4.27,1.2,1.2,0,0,1-1,0,1.09,1.09,0,0,1-.4-.27,1.09,1.09,0,0,1-.27-.4,1.15,1.15,0,0,1-.1-.48h-1.56a2.85,2.85,0,0,0,.21,1.08,2.8,2.8,0,0,0,.61.91,2.8,2.8,0,0,0,.91.61,2.85,2.85,0,0,0,1.08.21Z"/><path d="M134.09,4.06l-5.94,8.12V4.06H125V17.18h3.13l5.94-8.12v8.12h3.12V4.06Z"/></svg>